<svg width="256" height="256" viewBox="0 0 256 256" fill="none" xmlns="http://www.w3.org/2000/svg">
<ellipse cx="156.773" cy="73.6109" rx="23.5564" ry="33.611" fill="#F6F5E8"/>
<ellipse cx="99.606" cy="73.6109" rx="23.2691" ry="33.611" fill="#F6F5E8"/>
<ellipse cx="58.2973" cy="123.814" rx="21.7431" ry="31.4488" transform="rotate(-8.79768 58.2973 123.814)" fill="#F6F5E8"/>
<ellipse cx="197.353" cy="123.621" rx="22.0986" ry="31.2072" transform="rotate(8.8717 197.353 123.621)" fill="#F6F5E8"/>
<path d="M126.932 116.415C110.523 116.415 55.6534 162.953 61.1465 188.807C61.1465 201.418 74.8217 214.662 91.0229 214.662C108.634 214.662 120.29 207.193 128.046 207.193C138.388 207.193 147.396 215.811 164.852 215.811C181.053 215.811 195.556 201.735 195.556 184.498C195.556 162.091 143.847 116.415 126.932 116.415Z" fill="#F6F5E8"/>
</svg>
