<svg width="24" height="24" viewBox="0 0 24 24" fill="none" xmlns="http://www.w3.org/2000/svg">
<path fill-rule="evenodd" clip-rule="evenodd" d="M22 12V19.206C21.9999 19.5004 21.9246 19.7899 21.7812 20.047C21.6377 20.3041 21.431 20.5203 21.1805 20.675C20.93 20.8297 20.6441 20.9178 20.35 20.9309C20.0559 20.9441 19.7633 20.8818 19.5 20.75C19.0443 20.522 18.5364 20.4186 18.0278 20.4502C17.5192 20.4818 17.028 20.6473 16.604 20.93C16.1291 21.2469 15.5709 21.416 15 21.416C14.4291 21.416 13.8709 21.2469 13.396 20.93L13.043 20.696C12.7341 20.49 12.3712 20.3801 12 20.3801C11.6288 20.3801 11.2659 20.49 10.957 20.696L10.604 20.931C10.1291 21.2479 9.57093 21.417 9 21.417C8.42907 21.417 7.87092 21.2479 7.396 20.931C6.9719 20.6482 6.48052 20.4825 5.97174 20.4509C5.46295 20.4193 4.95486 20.5228 4.499 20.751C4.23561 20.8826 3.94295 20.9447 3.6488 20.9314C3.35466 20.9181 3.06881 20.8297 2.81841 20.6748C2.56801 20.5199 2.36137 20.3036 2.21813 20.0463C2.07489 19.7891 1.9998 19.4994 2 19.205V12C2 6.477 6.477 2 12 2C17.523 2 22 6.477 22 12ZM9.447 14.398C9.36815 14.3366 9.27782 14.2916 9.18134 14.2657C9.08486 14.2397 8.98416 14.2333 8.88516 14.2468C8.78615 14.2603 8.69084 14.2934 8.60483 14.3442C8.51881 14.3951 8.44381 14.4626 8.38425 14.5428C8.32468 14.623 8.28174 14.7143 8.25796 14.8114C8.23417 14.9084 8.23002 15.0092 8.24574 15.1079C8.26146 15.2066 8.29674 15.3011 8.3495 15.386C8.40227 15.4708 8.47146 15.5443 8.553 15.602C9.54841 16.3459 10.7574 16.7485 12 16.75C13.2426 16.7485 14.4516 16.3459 15.447 15.602C15.5285 15.5443 15.5977 15.4708 15.6505 15.386C15.7033 15.3011 15.7385 15.2066 15.7543 15.1079C15.77 15.0092 15.7658 14.9084 15.742 14.8114C15.7183 14.7143 15.6753 14.623 15.6158 14.5428C15.5562 14.4626 15.4812 14.3951 15.3952 14.3442C15.3092 14.2934 15.2138 14.2603 15.1148 14.2468C15.0158 14.2333 14.9151 14.2397 14.8187 14.2657C14.7222 14.2916 14.6319 14.3366 14.553 14.398C13.8161 14.9498 12.9206 15.2486 12 15.25C11.0794 15.2486 10.1839 14.9498 9.447 14.398ZM16 9.5C16 10.328 15.552 11 15 11C14.448 11 14 10.328 14 9.5C14 8.672 14.448 8 15 8C15.552 8 16 8.672 16 9.5ZM9 11C9.552 11 10 10.328 10 9.5C10 8.672 9.552 8 9 8C8.448 8 8 8.672 8 9.5C8 10.328 8.448 11 9 11Z" fill="black"/>
</svg>
