<svg width="24" height="24" viewBox="0 0 24 24" fill="none" xmlns="http://www.w3.org/2000/svg">
<path d="M12 3C10.8181 3 9.64778 3.23279 8.55585 3.68508C7.46392 4.13738 6.47177 4.80031 5.63604 5.63604C4.80031 6.47177 4.13738 7.46392 3.68508 8.55585C3.23279 9.64778 3 10.8181 3 12C3 13.1819 3.23279 14.3522 3.68508 15.4442C4.13738 16.5361 4.80031 17.5282 5.63604 18.364C6.47177 19.1997 7.46392 19.8626 8.55585 20.3149C9.64778 20.7672 10.8181 21 12 21C14.3869 21 16.6761 20.0518 18.364 18.364C20.0518 16.6761 21 14.3869 21 12C21 9.61305 20.0518 7.32387 18.364 5.63604C16.6761 3.94821 14.3869 3 12 3ZM1 12C1 5.925 5.925 1 12 1C18.075 1 23 5.925 23 12C23 18.075 18.075 23 12 23C5.925 23 1 18.075 1 12ZM9 8V12H7V8H9ZM17 8V12H15V8H17ZM8.9 13.634L9.4 14.499C9.922 15.4 10.89 16 12 16C13.11 16 14.08 15.399 14.6 14.5L15.1 13.634L16.831 14.635L16.331 15.501C15.892 16.261 15.2606 16.8921 14.5003 17.3308C13.7401 17.7694 12.8777 18.0003 12 18C11.1223 18 10.2601 17.7689 9.50007 17.3301C8.74 16.8913 8.10883 16.2601 7.67 15.5L7.169 14.635L8.9 13.634Z" fill="black"/>
</svg>
